<?xml version="1.0" standalone="no"?><!DOCTYPE svg PUBLIC "-//W3C//DTD SVG 1.1//EN" "http://www.w3.org/Graphics/SVG/1.1/DTD/svg11.dtd"><svg t="1548126677976" class="icon" style="" viewBox="0 0 1024 1024" version="1.1" xmlns="http://www.w3.org/2000/svg" p-id="1616" xmlns:xlink="http://www.w3.org/1999/xlink" width="128" height="128"><defs><style type="text/css"></style></defs><path d="M512 164.9c26.2 0 51.6 5.2 75.6 15.3 23.2 9.9 44.1 24 62.1 42s32.1 38.9 42 62.1c10.2 24 15.3 49.4 15.3 75.6v248c0 26.2-5.2 51.6-15.3 75.6-9.9 23.2-24 44.1-42 62.1s-38.9 32.1-62.1 42c-24 10.2-49.4 15.3-75.6 15.3s-51.6-5.2-75.6-15.3c-23.2-9.9-44.1-24-62.1-42s-32.1-38.9-42-62.1c-10.2-24-15.3-49.4-15.3-75.6v-248c0-26.2 5.2-51.6 15.3-75.6 9.9-23.2 24-44.1 42-62.1s38.9-32.1 62.1-42c24-10.2 49.4-15.3 75.6-15.3m0-60c-140.3 0-255 114.7-255 255v248c0 140.3 114.7 255 255 255s255-114.7 255-255v-248c0-140.3-114.7-255-255-255z" fill="#FFFFFF" p-id="1617"></path><path d="M707 381v226.9c0 26.2-5.2 51.6-15.3 75.6-9.9 23.2-24 44.1-42 62.1s-38.9 32.1-62.1 42c-24 10.2-49.4 15.3-75.6 15.3s-51.6-5.2-75.6-15.3c-23.2-9.9-44.1-24-62.1-42s-32.1-38.9-42-62.1c-10.2-24-15.3-49.4-15.3-75.6V381h-60v226.9c0 140.3 114.7 255 255 255s255-114.7 255-255V381h-60z" fill="#B9D5EA" p-id="1618"></path><path d="M512 872.9c-70.5 0-137-27.6-187.2-77.8-50.2-50.3-77.8-116.7-77.8-187.2v-248c0-70.5 27.6-137 77.8-187.2C375 122.5 441.5 94.9 512 94.9c70.5 0 137 27.6 187.2 77.8 50.2 50.2 77.8 116.7 77.8 187.2v248c0 70.5-27.6 137-77.8 187.2-50.2 50.1-116.7 77.8-187.2 77.8z m0-758c-135.1 0-245 109.9-245 245v248c0 135.1 109.9 245 245 245s245-109.9 245-245v-248c0-135.1-109.9-245-245-245z m0 698c-27.5 0-54.3-5.4-79.5-16.1-24.4-10.4-46.4-25.2-65.3-44.1-18.9-18.9-33.8-40.9-44.1-65.3-10.7-25.2-16.1-51.9-16.1-79.5v-248c0-27.5 5.4-54.3 16.1-79.5 10.4-24.4 25.2-46.4 44.1-65.3 18.9-18.9 40.9-33.8 65.3-44.1 25.2-10.7 51.9-16.1 79.5-16.1 27.5 0 54.3 5.4 79.5 16.1 24.4 10.4 46.4 25.2 65.3 44.1 18.9 18.9 33.8 40.9 44.1 65.3 10.7 25.2 16.1 51.9 16.1 79.5v248c0 27.5-5.4 54.3-16.1 79.5-10.4 24.4-25.2 46.4-44.1 65.3s-40.9 33.8-65.3 44.1c-25.2 10.6-52 16.1-79.5 16.1z m0-638c-24.8 0-48.9 4.9-71.6 14.5-22 9.4-41.9 22.8-59 39.9-17.1 17.1-30.5 36.9-39.9 59-9.7 22.7-14.5 46.8-14.5 71.6v248c0 24.8 4.9 48.9 14.5 71.6 9.4 22 22.8 41.9 39.9 59 17.1 17.1 36.9 30.5 59 39.9 22.7 9.7 46.8 14.5 71.6 14.5 24.8 0 48.9-4.9 71.6-14.5 22-9.4 41.9-22.8 59-39.9 17.1-17.1 30.5-36.9 39.9-59 9.7-22.7 14.5-46.8 14.5-71.6v-248c0-24.8-4.9-48.9-14.5-71.6-9.4-22-22.8-41.9-39.9-59-17.1-17.1-36.9-30.5-59-39.9-22.7-9.7-46.8-14.5-71.6-14.5z" fill="#322E63" p-id="1619"></path><path d="M168.3 798.2V631.8c0-26.4 21.6-48 48-48h591.4c26.4 0 48 21.6 48 48v166.4c0 66-54 120-120 120H288.3c-66 0-120-54-120-120z" fill="#4E98A0" p-id="1620"></path><path d="M168.3 822.6V568.8c0-66 54-120 120-120h447.4c66 0 120 54 120 120v253.8c0 26.4-21.6 48-48 48H216.3c-26.4 0-48-21.6-48-48z" fill="#76C49A" p-id="1621"></path><path d="M735.7 928.2H288.3c-71.7 0-130-58.3-130-130V568.8c0-71.7 58.3-130 130-130h447.4c71.7 0 130 58.3 130 130v229.4c0 71.7-58.3 130-130 130zM288.3 458.8c-60.7 0-110 49.3-110 110v229.4c0 60.7 49.3 110 110 110h447.4c60.7 0 110-49.3 110-110V568.8c0-60.7-49.3-110-110-110H288.3z" fill="#322E63" p-id="1622"></path><path d="M297 765.6V556.8c0-13.2 10.8-24 24-24h60c13.2 0 24 10.8 24 24v208.8c0 13.2-10.8 24-24 24h-60c-13.2 0-24-10.8-24-24zM458 765.6V556.8c0-13.2 10.8-24 24-24h60c13.2 0 24 10.8 24 24v208.8c0 13.2-10.8 24-24 24h-60c-13.2 0-24-10.8-24-24zM619 765.6V556.8c0-13.2 10.8-24 24-24h60c13.2 0 24 10.8 24 24v208.8c0 13.2-10.8 24-24 24h-60c-13.2 0-24-10.8-24-24z" fill="#FFFFFF" p-id="1623"></path><path d="M297 765.6V661.2h108v104.4c0 13.3-10.7 24-24 24h-60c-13.3 0-24-10.8-24-24zM458 765.6V661.2h108v104.4c0 13.3-10.7 24-24 24h-60c-13.3 0-24-10.8-24-24zM619 765.6V661.2h108v104.4c0 13.3-10.7 24-24 24h-60c-13.3 0-24-10.8-24-24z" fill="#B9D5EA" p-id="1624"></path><path d="M381 799.6h-60c-18.7 0-34-15.3-34-34V556.8c0-18.7 15.3-34 34-34h60c18.7 0 34 15.3 34 34v208.8c0 18.7-15.3 34-34 34z m-60-256.8c-7.7 0-14 6.3-14 14v208.8c0 7.7 6.3 14 14 14h60c7.7 0 14-6.3 14-14V556.8c0-7.7-6.3-14-14-14h-60zM542 799.6h-60c-18.7 0-34-15.3-34-34V556.8c0-18.7 15.3-34 34-34h60c18.7 0 34 15.3 34 34v208.8c0 18.7-15.3 34-34 34z m-60-256.8c-7.7 0-14 6.3-14 14v208.8c0 7.7 6.3 14 14 14h60c7.7 0 14-6.3 14-14V556.8c0-7.7-6.3-14-14-14h-60zM703 799.6h-60c-18.7 0-34-15.3-34-34V556.8c0-18.7 15.3-34 34-34h60c18.7 0 34 15.3 34 34v208.8c0 18.7-15.3 34-34 34z m-60-256.8c-7.7 0-14 6.3-14 14v208.8c0 7.7 6.3 14 14 14h60c7.7 0 14-6.3 14-14V556.8c0-7.7-6.3-14-14-14h-60z" fill="#322E63" p-id="1625"></path><path d="M405 714H297c-5.5 0-10-4.5-10-10s4.5-10 10-10h108c5.5 0 10 4.5 10 10s-4.5 10-10 10zM405 628.4H297c-5.5 0-10-4.5-10-10s4.5-10 10-10h108c5.5 0 10 4.5 10 10s-4.5 10-10 10z" fill="#322E63" p-id="1626"></path><path d="M566 714H458c-5.5 0-10-4.5-10-10s4.5-10 10-10h108c5.5 0 10 4.5 10 10s-4.5 10-10 10zM566 628.4H458c-5.5 0-10-4.5-10-10s4.5-10 10-10h108c5.5 0 10 4.5 10 10s-4.5 10-10 10z" fill="#322E63" p-id="1627"></path><path d="M727 714H619c-5.5 0-10-4.5-10-10s4.5-10 10-10h108c5.5 0 10 4.5 10 10s-4.5 10-10 10zM727 628.4H619c-5.5 0-10-4.5-10-10s4.5-10 10-10h108c5.5 0 10 4.5 10 10s-4.5 10-10 10z" fill="#322E63" p-id="1628"></path></svg>