<?xml version="1.0" standalone="no"?><!DOCTYPE svg PUBLIC "-//W3C//DTD SVG 1.1//EN" "http://www.w3.org/Graphics/SVG/1.1/DTD/svg11.dtd"><svg t="1546937088081" class="icon" style="" viewBox="0 0 1024 1024" version="1.1" xmlns="http://www.w3.org/2000/svg" p-id="1230" xmlns:xlink="http://www.w3.org/1999/xlink" width="200" height="200"><defs><style type="text/css"></style></defs><path d="M152.581094 753.256716 152.581094 271.761474c0-11.281951 9.179057-20.461007 20.461007-20.461007l383.803269 0 0-88.082104L173.042101 163.218362c-59.851133 0-108.543112 48.693002-108.543112 108.543112l0 481.495242c0 59.851133 48.691979 108.543112 108.543112 108.543112l383.803269 0 0-88.081081L173.042101 773.718747C161.760151 773.718747 152.581094 764.53969 152.581094 753.256716z" p-id="1231"></path><path d="M957.121823 505.503029 804.060799 314.127374c-1.249457-1.561565-3.124154-3.302209-11.961426-3.302209-4.284583 1.472538-7.140631 5.53404-7.140631 10.086729l0 142.281517L451.39162 463.193411c-27.02347 0-49.004087 21.958104-49.004087 48.960085s21.980617 49.004087 49.004087 49.004087l333.568145 0 0 142.281517c0 4.552689 2.901073 8.658194 7.185656 10.175757 1.093914 0.357134 2.275833 0.580215 3.547803 0.580215 3.347235 0 6.337335-1.428535 8.390088-4.016477L957.143313 518.846942C960.289979 514.919493 960.289979 509.430478 957.121823 505.503029z" p-id="1232"></path></svg>