<?xml version="1.0" standalone="no"?><!DOCTYPE svg PUBLIC "-//W3C//DTD SVG 1.1//EN" "http://www.w3.org/Graphics/SVG/1.1/DTD/svg11.dtd"><svg t="1546937080129" class="icon" style="" viewBox="0 0 1137 1024" version="1.1" xmlns="http://www.w3.org/2000/svg" p-id="1119" xmlns:xlink="http://www.w3.org/1999/xlink" width="222.0703125" height="200"><defs><style type="text/css"></style></defs><path d="M54.245831 107.989902c0-29.802951 24.455396-54.095644 54.317511-54.095644h920.649956c29.999787 0 54.317511 24.194844 54.317511 54.095644v808.020196c0 29.802951-24.454258 54.095644-54.317511 54.095644H108.56448c-29.999787 0-54.317511-24.194844-54.317511-54.095644V107.989902zM0 107.989902v808.020196C0 975.659236 48.5888 1024 108.56448 1024h920.648818c59.820942 0 108.56448-48.419271 108.56448-107.989902V107.989902C1137.777778 48.340764 1089.188978 0 1029.213298 0H108.56448C48.7424 0 0 48.419271 0 107.989902z" p-id="1120"></path><path d="M56.888889 341.333333h1024v-56.888889H56.888889zM755.740444 485.052871c-7.922347 0-15.394133 3.003733-21.026133 8.471893l-224.5632 218.048285-107.267413-104.1408c-5.571698-5.469298-13.016178-8.480996-20.946489-8.480996-7.930311 0-15.399822 3.003733-21.024996 8.455965-5.605831 5.38624-8.717653 12.589511-8.742684 20.288853-0.018204 7.717547 3.085653 14.986809 8.733582 20.486827l128.196836 124.479715c5.597867 5.4272 13.075342 8.415004 21.048889 8.415005 7.965582 0 15.443058-2.986667 21.040924-8.421831L776.676693 534.300444c5.605831-5.377138 8.717653-12.572444 8.743823-20.280888 0.017067-7.750542-3.093618-15.035733-8.726756-20.48-5.578524-5.476124-13.021867-8.487822-20.953316-8.487823" p-id="1121"></path></svg>