<?xml version="1.0" standalone="no"?><!DOCTYPE svg PUBLIC "-//W3C//DTD SVG 1.1//EN" "http://www.w3.org/Graphics/SVG/1.1/DTD/svg11.dtd"><svg t="1548840037620" class="icon" style="" viewBox="0 0 1024 1024" version="1.1" xmlns="http://www.w3.org/2000/svg" p-id="4000" xmlns:xlink="http://www.w3.org/1999/xlink" width="128" height="128"><defs><style type="text/css"></style></defs><path d="M800 192H640c0-70.4-57.6-128-128-128s-128 57.6-128 128H224c-17.6 0-32 14.4-32 32v704c0 17.6 14.4 32 32 32h576c17.6 0 32-14.4 32-32V224c0-17.6-14.4-32-32-32z m-288-32c17.6 0 32 14.4 32 32s-14.4 32-32 32-32-14.4-32-32 14.4-32 32-32z m-7.2 535.2l-45.6 45.6-45.6-45.6-89.6-90.4 45.6-45.6 90.4 90.4L664 445.6l45.6 45.6-204.8 204z" p-id="4001"></path></svg>