<?xml version="1.0" standalone="no"?><!DOCTYPE svg PUBLIC "-//W3C//DTD SVG 1.1//EN" "http://www.w3.org/Graphics/SVG/1.1/DTD/svg11.dtd"><svg t="1548838591821" class="icon" style="" viewBox="0 0 1024 1024" version="1.1" xmlns="http://www.w3.org/2000/svg" p-id="3842" xmlns:xlink="http://www.w3.org/1999/xlink" width="128" height="128"><defs><style type="text/css"></style></defs><path d="M864 192H704v-64h-64v64H384v-64h-64v64H160c-17.6 0-32 14.4-32 32v640c0 17.6 14.4 32 32 32h704c17.6 0 32-14.4 32-32V224c0-17.6-14.4-32-32-32z m-32 640H192V384h640v448zM403.2 707.2L320.8 624.8l45.6-45.6L448 661.6l210.4-210.4 45.6 45.6-210.4 210.4L448 752l-44.8-44.8z" p-id="3843"></path></svg>